<svg version="1.1" xmlns="http://www.w3.org/2000/svg" xmlns:xlink="http://www.w3.org/1999/xlink"
  x="0px" y="0px" width="1229.938px" height="346.008px"
  viewbox="0 0 1229.938 346.008" enable-background="new 0 0 1229.938 346.008" xml:space="preserve">
  <g id="Layer_2" display="none">
    <rect x="-155.12" y="-321.073" display="inline" fill="#8190C8" width="1500" height="1014.143" />
  </g>
  <g id="Layer_1">
    <path fill="#FFFFFF" d="M128.391,291.573v-76.879c0,0-0.007-3.71-0.007-5.096c0-2.72-1.287-5.102-5.108-5.102
c-3.822,0-5.116,2.258-5.116,5.082v81.994c-10.984,2.604-18.834,13.399-16.702,25.553c1.548,8.828,8.567,16.021,17.363,17.744
c14.166,2.773,26.623-8.053,26.623-21.732C145.444,302.677,138.156,293.888,128.391,291.573 M125.615,324.851
c-8.394,1.604-15.656-5.657-14.053-14.052c0.892-4.665,4.709-8.482,9.374-9.374c8.395-1.604,15.656,5.658,14.052,14.052
C134.097,320.143,130.28,323.959,125.615,324.851" />
    <path fill="#FFFFFF" d="M200.011,291.572v-81.993c0-2.824-2.292-5.116-5.116-5.116H167.36c-2.824,0-5.116,2.292-5.116,5.116
c0,2.826,2.292,5.115,5.116,5.115h22.419v76.878c-9.765,2.315-17.052,11.104-17.052,21.565c0,12.223,9.945,22.168,22.168,22.168
c12.223,0,22.168-9.945,22.168-22.168C217.063,302.677,209.776,293.888,200.011,291.572 M194.895,325.074
c-6.581,0-11.937-5.354-11.937-11.937c0-6.581,5.356-11.936,11.937-11.936s11.937,5.354,11.937,11.936
C206.832,319.72,201.476,325.074,194.895,325.074" />
    <path fill="#FFFFFF" d="M550.588,308.022H274.854c-2.315-9.766-11.104-17.053-21.565-17.053c-12.223,0-22.168,9.945-22.168,22.168
c0,12.224,9.945,22.168,22.168,22.168c10.461,0,19.25-7.286,21.565-17.052l275.734-0.068 M241.352,313.138
c0-6.581,5.355-11.937,11.937-11.937c6.581,0,11.936,5.355,11.936,11.937s-5.355,11.938-11.936,11.938
C246.707,325.075,241.352,319.719,241.352,313.138" />
    <path fill="#FFFFFF" d="M889.854,318.185l288.852,0.069c2.315,9.766,11.104,17.052,21.565,17.052
c12.223,0,22.168-9.944,22.168-22.168c0-12.223-9.945-22.168-22.168-22.168c-10.461,0-19.25,7.287-21.565,17.053H889.854
  M1212.208,313.138c0,6.581-5.354,11.938-11.937,11.938c-6.581,0-11.937-5.356-11.937-11.938s5.355-11.937,11.937-11.937
C1206.854,301.201,1212.208,306.557,1212.208,313.138" />
    <path fill="#FFFFFF" d="M260.503,42.796c-18.255-18.102-42.471-28.073-68.183-28.073c-33.765,0-65.009,17.604-82.577,46.237
c-4.273-1.349-8.716-2.028-13.255-2.028c-20.9,0-38.868,14.751-43.204,34.857c-31.274,8.115-52.078,39.99-44.345,73.606
c6.457,28.062,32.445,47.299,61.241,47.299h10.464v59.224H69.811c-2.604-10.984-13.399-18.834-25.552-16.703
c-8.829,1.55-16.021,8.567-17.744,17.363c-2.776,14.166,8.051,26.623,21.731,26.623c10.461,0,19.25-7.287,21.565-17.052h15.95
c2.825,0,5.116-2.29,5.116-5.116v-69.455c0-2.825-2.291-5.115-5.116-5.115H70.073c-24.851,0-47.062-17.175-51.627-41.603
c-5.273-28.221,13.332-54.476,40.285-59.824c2.17-0.431,3.803-2.228,4.094-4.421c2.231-16.796,16.689-29.451,33.663-29.451
c4.608,0,9.085,0.913,13.301,2.709c2.411,1.027,5.416,0.144,6.684-2.15c15.267-27.615,44.332-44.769,75.847-44.769
c45.202,0,82.673,35.118,86.317,79.498c0.283,3.439,3.346,5.96,6.773,5.56c2.032-0.237,3.562-2.031,3.39-4.069
C286.846,82.849,276.955,59.111,260.503,42.796 M50.585,290.746c-8.395,1.605-15.657-5.657-14.053-14.052
c0.892-4.665,4.708-8.482,9.374-9.373c8.394-1.604,15.655,5.656,14.052,14.051C59.067,286.037,55.25,289.854,50.585,290.746"
    />
    <path fill="#FFFFFF" d="M575.742,333.994v-40.535h16.672c1.713,0,3.293,0.363,4.739,1.084c1.443,0.725,2.691,1.684,3.736,2.884
c1.05,1.2,1.867,2.55,2.457,4.054c0.592,1.506,0.887,3.017,0.887,4.539c0,1.637-0.279,3.218-0.828,4.738
c-0.555,1.524-1.334,2.874-2.341,4.054c-1.011,1.182-2.22,2.121-3.625,2.826c-1.412,0.703-2.97,1.057-4.683,1.057h-14.102v15.3
H575.742z M578.655,316.012h13.986c1.332,0,2.531-0.275,3.598-0.831c1.064-0.548,1.97-1.292,2.711-2.226
c0.744-0.931,1.314-1.998,1.713-3.195c0.401-1.199,0.6-2.447,0.6-3.74c0-1.331-0.237-2.598-0.713-3.798
c-0.478-1.199-1.125-2.255-1.943-3.169c-0.818-0.911-1.768-1.636-2.854-2.168c-1.083-0.533-2.233-0.799-3.452-0.799h-13.645
V316.012z" />
    <polygon fill="#FFFFFF" points="611.196,333.994 611.196,293.459 614.109,293.459 614.109,331.367 638.313,331.367
638.313,333.994 	" />
    <path fill="#FFFFFF" d="M657.098,293.459h2.512l17.129,40.535h-3.082l-5.652-13.36h-19.354l-5.652,13.36h-3.141L657.098,293.459z
  M667.205,318.238L658.354,297l-9.02,21.238H667.205z" />
    <polygon fill="#FFFFFF" points="707.224,296.086 692.381,296.086 692.381,333.994 689.47,333.994 689.47,296.086 674.624,296.086
674.624,293.459 707.224,293.459 	" />
    <polygon fill="#FFFFFF" points="713.504,333.994 713.504,293.459 739.88,293.459 739.88,296.086 716.417,296.086 716.417,312.185
736.342,312.185 736.342,314.696 716.417,314.696 716.417,333.994 	" />
    <path fill="#FFFFFF" d="M762.66,334.279c-2.815,0-5.385-0.59-7.708-1.771c-2.318-1.178-4.316-2.72-5.99-4.623
c-1.679-1.904-2.972-4.092-3.886-6.565c-0.911-2.474-1.37-5.003-1.37-7.592c0-2.704,0.485-5.294,1.457-7.767
c0.973-2.473,2.304-4.66,3.996-6.565c1.694-1.902,3.702-3.416,6.024-4.538c2.319-1.123,4.831-1.686,7.535-1.686
c2.815,0,5.395,0.601,7.736,1.8c2.339,1.2,4.337,2.769,5.992,4.709c1.658,1.94,2.941,4.142,3.855,6.596s1.37,4.936,1.37,7.451
c0,2.738-0.484,5.347-1.456,7.819c-0.97,2.474-2.304,4.654-3.997,6.537c-1.694,1.883-3.702,3.388-6.021,4.51
C767.876,333.718,765.364,334.279,762.66,334.279 M746.619,313.729c0,2.318,0.389,4.558,1.171,6.706
c0.779,2.149,1.884,4.056,3.311,5.711c1.427,1.654,3.131,2.976,5.109,3.968c1.979,0.986,4.147,1.48,6.509,1.48
c2.435,0,4.632-0.513,6.595-1.539c1.96-1.026,3.634-2.39,5.023-4.084c1.389-1.689,2.464-3.604,3.227-5.734
c0.76-2.133,1.139-4.302,1.139-6.508c0-2.322-0.397-4.559-1.196-6.71c-0.799-2.149-1.915-4.053-3.339-5.711
c-1.428-1.654-3.111-2.977-5.056-3.968c-1.94-0.987-4.071-1.481-6.393-1.481c-2.438,0-4.646,0.513-6.624,1.54
c-1.979,1.029-3.672,2.39-5.081,4.083c-1.408,1.693-2.492,3.605-3.252,5.738C746.997,309.35,746.619,311.521,746.619,313.729"
    />
    <path fill="#FFFFFF" d="M789.492,333.994v-40.535h16.844c1.713,0,3.291,0.363,4.737,1.084c1.447,0.725,2.692,1.684,3.741,2.884
c1.045,1.2,1.862,2.55,2.453,4.054c0.591,1.506,0.886,3.017,0.886,4.539c0,1.485-0.229,2.923-0.688,4.312
c-0.455,1.389-1.103,2.634-1.939,3.737c-0.838,1.106-1.846,2.018-3.025,2.742c-1.181,0.722-2.473,1.196-3.881,1.428l10.104,15.756
h-3.368l-9.819-15.3h-13.132v15.3H789.492z M792.405,316.012h14.216c1.293,0,2.473-0.285,3.538-0.855
c1.065-0.571,1.979-1.325,2.743-2.255c0.76-0.935,1.341-1.999,1.738-3.198c0.4-1.2,0.6-2.43,0.6-3.684
c0-1.292-0.237-2.54-0.712-3.739c-0.479-1.2-1.123-2.256-1.941-3.169c-0.82-0.914-1.77-1.646-2.854-2.197
c-1.085-0.552-2.255-0.828-3.514-0.828h-13.814V316.012z" />
    <polygon fill="#FFFFFF" points="863.255,333.994 863.255,298.94 847.269,326.286 845.44,326.286 829.456,298.94 829.456,333.994
826.544,333.994 826.544,293.459 829.456,293.459 846.354,322.463 863.255,293.459 866.164,293.459 866.164,333.994 	"
    />
    <g>
      <path fill="#FFFFFF" stroke="#FFFFFF" stroke-width="3" stroke-miterlimit="10" d="M382.116,250.003
  c-11.747,3.809-24.444,5.713-38.094,5.713c-47.618,0-71.427-23.648-71.427-70.949c0-44.761,23.809-67.142,71.427-67.142
  c13.65,0,26.348,1.905,38.094,5.714v15.238c-11.747-4.443-23.809-6.667-36.189-6.667c-37.142,0-55.713,17.619-55.713,52.856
  c0,37.777,18.571,56.664,55.713,56.664c12.381,0,24.443-2.221,36.189-6.666V250.003z" />
      <path fill="#FFFFFF" stroke="#FFFFFF" stroke-width="3" stroke-miterlimit="10" d="M428.805,118.577v136.188h-17.619V118.577
  H428.805z" />
      <path fill="#FFFFFF" stroke="#FFFFFF" stroke-width="3" stroke-miterlimit="10" d="M500.54,154.767
  c28.443,0,42.666,14.064,42.666,42.189c0,4-0.286,8.285-0.857,12.857H472.16c0,20.443,11.936,30.666,35.809,30.666
  c11.364,0,21.459-1.27,30.285-3.811v14.285c-8.826,2.541-19.556,3.811-32.19,3.811c-34.349,0-51.522-17.048-51.522-51.143
  C454.541,171.052,469.874,154.767,500.54,154.767z M472.16,195.146h54.094c-0.381-17.523-8.952-26.285-25.713-26.285
  C482.762,168.862,473.303,177.624,472.16,195.146z" />
      <path fill="#FFFFFF" stroke="#FFFFFF" stroke-width="3" stroke-miterlimit="10" d="M563.132,224.575
  c0-20.508,13.523-30.762,40.57-30.762c8.698,0,17.396,0.635,26.096,1.904v-9.428c0-11.491-8.984-17.238-26.952-17.238
  c-10.286,0-20.825,1.587-31.618,4.762v-14.286c10.793-3.174,21.333-4.762,31.618-4.762c29.714,0,44.569,10.35,44.569,31.047
  v68.951h-9.904l-6.094-9.904c-9.969,6.604-20.826,9.904-32.571,9.904C575.037,254.765,563.132,244.702,563.132,224.575z
    M603.702,208.099c-15.301,0-22.951,5.397-22.951,16.189c0,10.795,6.031,16.191,18.095,16.191c12.19,0,22.507-3.238,30.952-9.715
  v-20.762C621.099,208.733,612.4,208.099,603.702,208.099z" />
      <path fill="#FFFFFF" stroke="#FFFFFF" stroke-width="3" stroke-miterlimit="10" d="M676.962,254.765v-99.998h11.904l3.144,12.762
  c8.762-8.507,19.3-12.762,31.618-12.762v14.667c-11.938,0-21.619,4.223-29.047,12.666v72.666H676.962z" />
      <path fill="#FFFFFF" stroke="#FFFFFF" stroke-width="3" stroke-miterlimit="10" d="M744.126,254.765V118.577h58.094
  c25.903,0,38.855,10.89,38.855,32.666c0,17.714-12.666,30.824-37.999,39.332l46.761,64.189H826.6l-43.332-61.236v-11.524
  c26.03-4.126,39.047-14.126,39.047-29.999c0-12.571-7.238-18.856-21.714-18.856h-38.856v121.616H744.126z" />
      <path fill="#FFFFFF" stroke="#FFFFFF" stroke-width="3" stroke-miterlimit="10" d="M862.717,204.766
  c0-33.333,15.872-49.999,47.618-49.999c31.744,0,47.617,16.667,47.617,49.999c0,33.271-15.873,49.903-47.617,49.903
  C878.717,254.669,862.844,238.036,862.717,204.766z M910.335,240.479c19.999,0,29.999-12.031,29.999-36.096
  c0-23.554-10-35.332-29.999-35.332c-20,0-29.999,11.778-29.999,35.332C880.336,228.448,890.335,240.479,910.335,240.479z"
      />
      <path fill="#FFFFFF" stroke="#FFFFFF" stroke-width="3" stroke-miterlimit="10" d="M977.976,224.575
  c0-20.508,13.523-30.762,40.57-30.762c8.698,0,17.396,0.635,26.095,1.904v-9.428c0-11.491-8.984-17.238-26.951-17.238
  c-10.286,0-20.826,1.587-31.619,4.762v-14.286c10.793-3.174,21.333-4.762,31.619-4.762c29.713,0,44.569,10.35,44.569,31.047
  v68.951h-9.904l-6.095-9.904c-9.969,6.604-20.825,9.904-32.57,9.904C989.88,254.765,977.976,244.702,977.976,224.575z
    M1018.546,208.099c-15.302,0-22.951,5.397-22.951,16.189c0,10.795,6.03,16.191,18.095,16.191c12.189,0,22.507-3.238,30.951-9.715
  v-20.762C1035.941,208.733,1027.244,208.099,1018.546,208.099z" />
      <path fill="#FFFFFF" stroke="#FFFFFF" stroke-width="3" stroke-miterlimit="10" d="M1176.564,248.765c-12.128,4-27.079,6-44.855,6
  c-29.778,0-44.666-17.334-44.666-51.999c0-32,15.81-47.999,47.428-47.999c8.634,0,16.792,1.588,24.476,4.762v-40.951h17.618
  V248.765z M1158.946,175.147c-7.111-3.428-15.238-5.143-24.381-5.143c-20.127,0-30.189,10.7-30.189,32.094
  c0,25.333,10.062,37.999,30.189,37.999c9.143,0,17.27-1.237,24.381-3.714V175.147z" />
    </g>
  </g>
</svg>
