<?xml version="1.0" encoding="UTF-8"?>
<svg width="120px" height="32px" viewBox="0 0 120 32" version="1.1" xmlns="http://www.w3.org/2000/svg" xmlns:xlink="http://www.w3.org/1999/xlink">
    <!-- Generator: sketchtool 46.2 (44496) - http://www.bohemiancoding.com/sketch -->
    <title>428DF8E4-55B7-4B3E-B985-A946F1864889</title>
    <desc>Created with sketchtool.</desc>
    <defs>
        <polygon id="path-1" points="8.75328671 16.4788138 8.75328671 0.136193103 0.0450629371 0.136193103 0.0450629371 16.4788138 8.75328671 16.4788138"></polygon>
    </defs>
    <g id="Page-1" stroke="none" stroke-width="1" fill="none" fill-rule="evenodd">
        <g id="map" transform="translate(-46.000000, -23.000000)">
            <g id="Group-3" transform="translate(-14.000000, 0.000000)">
                <g id="Logo" transform="translate(60.000000, 23.000000)">
                    <g id="Page-1">
                        <path d="M40.9629091,24.1399724 C37.957035,24.1399724 35.5114406,21.7281103 35.5114406,18.7636966 L35.5114406,13.1874207 C35.5114406,10.222731 37.957035,7.81086897 40.9629091,7.81086897 C43.9687832,7.81086897 46.4143776,10.222731 46.4143776,13.1874207 L44.6356364,13.1874207 C44.6356364,11.1901793 42.9880839,9.56535172 40.9629091,9.56535172 C38.9377343,9.56535172 37.2899021,11.1901793 37.2899021,13.1874207 L37.2899021,18.7636966 C37.2899021,20.7609379 38.9377343,22.3860414 40.9629091,22.3860414 C42.9880839,22.3860414 44.6356364,20.7609379 44.6356364,18.7636966 L46.4143776,18.7636966 C46.4143776,21.7281103 43.9687832,24.1399724 40.9629091,24.1399724 Z" id="Fill-1" fill="#264A73"></path>
                        <path d="M52.587972,24.1399724 C50.2276923,24.1399724 48.2332867,22.2881103 48.2332867,20.0963862 L48.2332867,7.79735172 L50.0123077,7.79735172 L50.0123077,20.0963862 C50.0123077,21.4064552 51.3723077,22.3860414 52.587972,22.3860414 L52.587972,24.1399724 Z" id="Fill-3" fill="#264A73"></path>
                        <path d="M70.4391049,11.2851586 L70.4391049,12.1560552 C69.7168671,11.6302621 68.8276364,11.3157793 67.8634406,11.3157793 C65.4626014,11.3157793 63.509035,13.2426759 63.509035,15.6106759 L63.509035,19.8454345 C63.509035,22.2131586 65.4626014,24.1400552 67.8634406,24.1400552 C68.8276364,24.1400552 69.7168671,23.8255724 70.4391049,23.3000552 L70.4391049,23.8995034 L72.2175664,23.8995034 L72.2175664,11.2851586 L70.4391049,11.2851586 Z M70.4391049,19.8454345 C70.4391049,21.2462621 69.2835804,22.3855724 67.8634406,22.3855724 C66.4435804,22.3855724 65.2877762,21.2462621 65.2877762,19.8454345 L65.2877762,15.6106759 C65.2877762,14.2098483 66.4435804,13.0705379 67.8634406,13.0705379 C69.2835804,13.0705379 70.4391049,14.2098483 70.4391049,15.6106759 L70.4391049,19.8454345 Z" id="Fill-5" fill="#264A73"></path>
                        <path d="M76.1026294,12.0683034 L76.1026294,11.285131 L74.3241678,11.285131 L74.3241678,15.5226483 L74.3241678,18.0740966 L74.3241678,23.8992 L76.1026294,23.8992 L76.1026294,18.0740966 L76.1026294,15.5226483 C76.1026294,14.1223724 77.2581538,12.9825103 78.6782937,12.9825103 L78.6782937,11.2285793 C77.7143776,11.2285793 76.8248671,11.5427862 76.1026294,12.0683034" id="Fill-7" fill="#264A73"></path>
                        <path d="M61.9751049,18.4212138 L61.9751049,17.7276966 L61.9854545,17.7276966 L61.9854545,15.610731 C61.9854545,13.242731 60.0321678,11.3158345 57.631049,11.3158345 C55.2299301,11.3158345 53.2766434,13.242731 53.2766434,15.610731 L53.2766434,19.8457655 C53.2766434,22.2137655 55.2299301,24.1398345 57.631049,24.1398345 C60.0321678,24.1398345 61.9854545,22.2137655 61.9854545,19.8457655 L60.2067133,19.8457655 C60.2067133,21.2460414 59.0511888,22.3859034 57.631049,22.3859034 C56.2111888,22.3859034 55.0553846,21.2460414 55.0553846,19.8457655 L55.0553846,18.4212138 L61.9751049,18.4212138 Z M57.631049,13.0703172 C59.0511888,13.0703172 60.2067133,14.2099034 60.2067133,15.610731 L60.2067133,16.6672828 L55.0553846,16.6672828 L55.0553846,15.610731 C55.0553846,14.2099034 56.2111888,13.0703172 57.631049,13.0703172 L57.631049,13.0703172 Z" id="Fill-9" fill="#264A73"></path>
                        <path d="M95.5792448,24.1399724 C93.1781259,24.1399724 91.2248392,22.2139034 91.2248392,19.8459034 L91.2248392,15.6105931 C91.2248392,13.2425931 93.1781259,11.3159724 95.5792448,11.3159724 C97.9800839,11.3159724 99.9336503,13.2425931 99.9336503,15.6105931 L99.9336503,19.8459034 C99.9336503,22.2139034 97.9800839,24.1399724 95.5792448,24.1399724 M95.5792448,13.0704552 C94.1591049,13.0704552 93.0035804,14.2100414 93.0035804,15.6105931 L93.0035804,19.8459034 C93.0035804,21.2464552 94.1591049,22.3860414 95.5792448,22.3860414 C96.9991049,22.3860414 98.1549091,21.2464552 98.1549091,19.8459034 L98.1549091,15.6105931 C98.1549091,14.2100414 96.9991049,13.0704552 95.5792448,13.0704552" id="Fill-11" fill="#5993CD"></path>
                        <g id="Group-15" transform="translate(111.048951, 7.661241)">
                            <mask id="mask-2" fill="white">
                                <use xlink:href="#path-1"></use>
                            </mask>
                            <g id="Clip-14"></g>
                            <path d="M6.97485315,0.136193103 L6.97485315,4.49453793 C6.25261538,3.96957241 5.36338462,3.65453793 4.39918881,3.65453793 C1.99806993,3.65453793 0.0450629371,5.58143448 0.0450629371,7.94943448 L0.0450629371,12.1841931 C0.0450629371,14.5519172 1.99806993,16.4788138 4.39918881,16.4788138 C5.36338462,16.4788138 6.25261538,16.164331 6.97485315,15.6390897 L6.97485315,16.2255724 L8.75331469,16.2255724 L8.75331469,0.136193103 L6.97485315,0.136193103 Z M6.97485315,12.1841931 C6.97485315,13.5850207 5.81960839,14.724331 4.39918881,14.724331 C2.97932867,14.724331 1.82352448,13.5850207 1.82352448,12.1841931 L1.82352448,7.94943448 C1.82352448,6.5486069 2.97932867,5.40902069 4.39918881,5.40902069 C5.81960839,5.40902069 6.97485315,6.5486069 6.97485315,7.94943448 L6.97485315,12.1841931 Z" id="Fill-13" fill="#5993CD" mask="url(#mask-2)"></path>
                        </g>
                        <path d="M108.089343,11.2851586 L108.089343,12.1560552 C107.367105,11.6302621 106.477594,11.3157793 105.513678,11.3157793 C103.112559,11.3157793 101.158993,13.2426759 101.158993,15.6106759 L101.158993,19.8454345 C101.158993,22.2131586 103.112559,24.1400552 105.513678,24.1400552 C106.477594,24.1400552 107.367105,23.8255724 108.089343,23.3000552 L108.089343,23.8995034 L109.867804,23.8995034 L109.867804,11.2851586 L108.089343,11.2851586 Z M108.089343,19.8454345 C108.089343,21.2462621 106.933538,22.3855724 105.513678,22.3855724 C104.093538,22.3855724 102.938014,21.2462621 102.938014,19.8454345 L102.938014,15.6106759 C102.938014,14.2098483 104.093538,13.0705379 105.513678,13.0705379 C106.933538,13.0705379 108.089343,14.2098483 108.089343,15.6106759 L108.089343,19.8454345 Z" id="Fill-16" fill="#5993CD"></path>
                        <path d="M89.3554685,17.9341517 C89.2007832,17.0693241 88.7154685,16.2988414 88.0365874,15.7189793 C89.2564476,14.9570483 90.0707133,13.6180138 90.0707133,12.091669 C90.0707133,9.72394483 88.1168671,7.79704828 85.7157483,7.79704828 L81.4217622,7.79704828 L81.4217622,7.82491034 L80.070993,7.82491034 L80.070993,23.8991172 L81.8497343,23.8991172 L81.8497343,16.3860138 L85.0863776,16.3860138 L85.0863776,16.3865655 C86.297007,16.3683586 87.4184056,17.2017379 87.6041399,18.2389793 L88.6167273,23.8991172 L90.4226014,23.8991172 L89.3554685,17.9341517 Z M81.8497343,9.55153103 L85.7157483,9.55153103 C87.1361678,9.55153103 88.2914126,10.6908414 88.2914126,12.091669 C88.2914126,13.4922207 87.1361678,14.6318069 85.7157483,14.6318069 L81.8497343,14.6318069 L81.8497343,9.55153103 Z" id="Fill-18" fill="#5993CD"></path>
                        <path d="M12.4992986,16.1235862 C12.4188697,18.2583657 10.6326351,19.9707862 8.4486993,19.9707862 C6.21373427,19.9707862 4.39527273,18.1774069 4.39527273,15.973269 L4.39527273,8.33271724 C4.39527273,6.12857931 6.21373427,4.3352 8.4486993,4.3352 C10.6836643,4.3352 12.5021259,6.12857931 12.5021259,8.33271724 L14.4601678,8.33271724 C14.4601678,5.06347586 11.7636643,2.40416552 8.4486993,2.40416552 C5.13373427,2.40416552 2.43723077,5.06347586 2.43723077,8.33271724 L2.43723077,15.973269 C2.43723077,19.2422345 5.13373427,21.9018207 8.4486993,21.9018207 C11.712705,21.9018207 14.3771176,19.3233751 14.4582637,16.1235862 L12.4992986,16.1235862 Z" id="Combined-Shape" fill="#264A73"></path>
                        <path d="M14.9372848,16.1235862 C14.8560042,19.5838046 11.9764873,22.374069 8.4486993,22.374069 C4.86967832,22.374069 1.95806993,19.5026207 1.95806993,15.9732414 L1.95806993,8.33268966 C1.95806993,4.80275862 4.86967832,1.93103448 8.4486993,1.93103448 C12.0274406,1.93103448 14.939049,4.80275862 14.939049,8.33268966 L16.8970909,8.33268966 C16.8970909,3.7382069 13.1071608,0 8.4486993,0 C3.79023776,0 2.7972028e-05,3.7382069 2.7972028e-05,8.33268966 L2.7972028e-05,15.9732414 C2.7972028e-05,20.5674483 3.79023776,24.3051034 8.4486993,24.3051034 C13.0562399,24.3051034 16.8141329,20.6487131 16.8957362,16.1235862 L14.9372848,16.1235862 Z" id="Combined-Shape" fill="#264A73"></path>
                        <path d="M16.8959053,15.6204138 C17.0732076,13.5763092 18.8168955,11.9665931 20.9344895,11.9665931 C23.1694545,11.9665931 24.9879161,13.7596966 24.9879161,15.9641103 L24.9879161,23.6043862 C24.9879161,25.8085241 23.1694545,27.6019034 20.9344895,27.6019034 C18.6995245,27.6019034 16.8810629,25.8085241 16.8810629,23.6043862 L14.923021,23.6043862 C14.923021,26.8736276 17.6195245,29.5329379 20.9344895,29.5329379 C24.2494545,29.5329379 26.945958,26.8736276 26.945958,23.6043862 L26.945958,15.9641103 C26.945958,12.6951448 24.2494545,10.0355586 20.9344895,10.0355586 C17.7365021,10.0355586 15.1140981,12.5107551 14.9330029,15.6204138 L16.8959053,15.6204138 Z" id="Combined-Shape" fill="#5993CD"></path>
                        <path d="M14.4533842,15.6204138 C14.6350928,12.2502064 17.4726635,9.56331034 20.9344895,9.56331034 C24.5135105,9.56331034 27.4251189,12.4347586 27.4251189,15.9641379 L27.4251189,23.6044138 C27.4251189,27.1343448 24.5135105,30.006069 20.9344895,30.006069 C17.3557483,30.006069 14.4441399,27.1343448 14.4441399,23.6044138 L12.4860979,23.6044138 C12.4860979,28.1988966 16.276028,31.9371034 20.9344895,31.9371034 C25.592951,31.9371034 29.3831608,28.1988966 29.3831608,23.6044138 L29.3831608,15.9641379 C29.3831608,11.369931 25.592951,7.63227586 20.9344895,7.63227586 C16.3927659,7.63227586 12.6765895,11.184952 12.4931918,15.6204138 L14.4533842,15.6204138 Z" id="Combined-Shape" fill="#5993CD"></path>
                    </g>
                </g>
            </g>
        </g>
    </g>
</svg>